<svg xmlns="http://www.w3.org/2000/svg" width="16" height="16" fill="none">
  <g clip-path="url(#a)">
    <path fill="#FCFCFC" fill-rule="evenodd" d="M2.2998 1.3333h-.0037a.9628.9628 0 0 0-.9628.9628V13.702a.9626.9626 0 0 0 .9628.9628H13.702a.9626.9626 0 0 0 .9628-.9628.7633.7633 0 0 1 .0008-.0339V2.2961c0-.2485-.0748-.4736-.282-.6808-.1555-.1555-.2283-.2039-.286-.2294-.0545-.024-.153-.0526-.3947-.0526H2.2998Zm13.5387 13.21a2.2966 2.2966 0 0 1-2.1365 1.4548H2.296A2.296 2.296 0 0 1 0 13.702V2.2961A2.2961 2.2961 0 0 1 1.4583.1583.664.664 0 0 1 1.8896 0H13.703c.3374 0 .6429.038.9336.1664.2875.127.5011.3172.69.5061.4815.4816.6725 1.0574.6725 1.6236v11.8133a.6643.6643 0 0 1-.1605.4339Z" clip-rule="evenodd"/>
  </g>
  <defs>
    <clipPath id="a">
      <path fill="#fff" d="M0 0h16v16H0z"/>
    </clipPath>
  </defs>
</svg>
